<svg xmlns="http://www.w3.org/2000/svg" style="display:none">
      <symbol id="github" viewBox="0 0 24 24"><path fill="currentColor" d="M12 1.5C6.2 1.5 1.7 6 1.7 11.8c0 4.5 2.9 8.3 6.9 9.6.5.1.7-.2.7-.5v-2c-2.8.6-3.4-1.3-3.4-1.3-.4-1-.9-1.3-.9-1.3-.8-.5.1-.5.1-.5.9.1 1.4 1 1.4 1 .8 1.4 2.1 1 2.6.8.1-.6.3-1 .6-1.3-2.2-.3-4.5-1.1-4.5-5 0-1.1.4-2 .9-2.7-.1-.3-.4-1.3.1-2.7 0 0 .8-.3 2.8 1 .8-.2 1.7-.3 2.6-.3s1.8.1 2.6.3c2-1.3 2.8-1 2.8-1 .5 1.4.2 2.4.1 2.7.6.7.9 1.6.9 2.7 0 3.9-2.3 4.7-4.5 5 .3.2.6.8.6 1.7v2.6c0 .3.2.6.7.5 4-1.3 6.9-5.1 6.9-9.6C22.3 6 17.8 1.5 12 1.5Z"/></symbol>
      <symbol id="mail" viewBox="0 0 24 24"><path fill="currentColor" d="M20 4H4c-1.1 0-2 .9-2 2v12a2 2 0 0 0 2 2h16a2 2 0 0 0 2-2V6c0-1.1-.9-2-2-2Zm0 4-8 5L4 8V6l8 5 8-5v2Z"/></symbol>
      <symbol id="globe" viewBox="0 0 24 24"><path fill="currentColor" d="M12 2a10 10 0 1 0 0 20h0a10 10 0 0 0 0-20Zm6.9 8H14a15 15 0 0 0-1-4.7A8.02 8.02 0 0 1 18.9 10ZM10 5.3A15 15 0 0 0 9 10H5.1A8.02 8.02 0 0 1 10 5.3ZM5.1 14H9c.2 1.7.6 3.3 1 4.7A8.02 8.02 0 0 1 5.1 14Zm7.9 4.7c.4-1.4.8-3 .9-4.7h4.9a8.02 8.02 0 0 1-5.8 4.7Z"/></symbol>
      <symbol id="link" viewBox="0 0 24 24"><path fill="currentColor" d="M3.9 12a5 5 0 0 1 5-5h3v2h-3a3 3 0 1 0 0 6h3v2h-3a5 5 0 0 1-5-5Zm7-1h2v2h-2v-2Zm4.1-4h-3v2h3a3 3 0 0 1 0 6h-3v2h3a5 5 0 1 0 0-10Z"/></symbol>
    </svg>